<?xml version="1.0" encoding="utf-8"?>
<!-- Generator: Adobe Illustrator 16.0.3, SVG Export Plug-In . SVG Version: 6.00 Build 0)  -->
<!DOCTYPE svg PUBLIC "-//W3C//DTD SVG 1.1//EN" "http://www.w3.org/Graphics/SVG/1.1/DTD/svg11.dtd">
<svg version="1.1" id="LEGO_logo" xmlns="http://www.w3.org/2000/svg" xmlns:xlink="http://www.w3.org/1999/xlink" x="0px" y="0px"
	 width="141.73px" height="141.73px" viewBox="0 0 141.73 141.73" enable-background="new 0 0 141.73 141.73" xml:space="preserve">
<g>
	<path fill="#FFFFFF" d="M0.961,0.946v139.839H140.8L140.799,0.946H0.961z"/>
	<path fill="#FFED00" d="M0.961,0.946v139.839H140.8L140.799,0.946H0.961z M131.496,59.074c-0.229,4.357-1.615,9.785-2.84,13.412
		c-4.916,14.611-10.617,23.668-23.818,23.668c-3.887-0.002-10.78-1.033-13.323-7.949l-0.604-1.64l-1.082,1.371
		c-4.127,5.229-10.262,8.248-16.832,8.277c-5.037,0.021-9.084-1.666-11.703-4.883l-0.718-0.883l-0.764,0.842
		c-2.797,3.089-7.668,4.859-13.364,4.859c-4.473,0-8.335-1.52-10.875-4.277l-0.693-0.75l-0.721,0.729
		c-2.826,2.852-7.275,4.288-12.872,4.153c-6.791-0.157-10.924-3.947-11.057-10.14c-0.204-9.543,9.032-29.62,12.853-35.724
		c2.483-4.078,5.896-6.058,10.438-6.058c3.093-0.002,5.208,0.646,6.465,1.979c1.142,1.209,1.367,2.229,1.469,4.686l0.131,3.176
		l1.68-2.696c4.053-6.533,10.771-7.437,17.429-7.438c4.628,0,8.667,1.704,10.288,4.338l0.598,0.974l0.868-0.738
		c3.432-2.916,8.271-4.521,13.629-4.521c5.848-0.001,10.098,1.453,12.633,4.321c0.578,0.651,0.957,1.107,1.488,2.22l0.65,1.365
		l0.979-1.154c3.709-4.391,8.777-6.612,15.068-6.612c4.979,0,8.758,1.319,11.231,3.932C131.227,51.184,131.67,55.787,131.496,59.074
		z"/>
	<path fill="#E3000B" d="M0.961,0.946v139.839H140.8L140.799,0.946H0.961z M135.434,64.438c-0.636,5.09-4.074,14.518-5.902,18.285
		c-4.9,10.102-11.453,17.862-24.07,17.861c-6.739-0.001-12.289-2.148-15.528-6.279c-4.75,4.157-10.629,6.342-16.957,6.34
		c-4.877,0-9.188-1.408-12.474-4.013c-3.627,2.556-8.518,3.98-13.94,3.979c-4.53,0-8.608-1.242-11.798-3.541
		c-3.529,2.342-8.152,3.504-13.582,3.377c-9.034-0.215-15.271-5.945-15.448-14.262c-0.238-11.049,9.07-31.275,13.455-38.279
		c3.284-5.391,8.292-8.295,14.43-8.295c6.664,0,9.08,1.904,10.268,4.328c5.141-4.365,11.955-4.617,16.809-4.616
		c5.354,0,8.715,1.421,11.578,3.696c3.944-2.368,8.473-3.602,13.869-3.602c6.896-0.001,12.02,1.604,15.592,5.139
		c4.172-3.469,9.389-5.052,15.231-5.052c7.728,0.001,12.808,2.787,15.789,6.94C136.961,52.305,136.211,58.203,135.434,64.438z"/>
	<path d="M0,0v141.732l141.73-0.002L141.732,0H0z M139.781,1.951l-0.002,137.829H1.952L1.95,1.951H139.781z"/>
	<path d="M134.752,42.528v-0.964l0.656-0.002c0.479,0,0.725,0.169,0.725,0.479c0.007,0.248-0.155,0.487-0.646,0.487H134.752z
		 M137.102,44.53l-0.406-0.708c-0.355-0.619-0.455-0.717-0.756-0.822l-0.002-0.019c0.594-0.071,0.953-0.453,0.951-0.985
		c0-0.557-0.354-0.979-1.109-0.979h-1.752v3.517h0.725l0.002-1.44l0.129-0.001c0.312,0,0.439,0.036,0.578,0.18
		c0.146,0.142,0.357,0.438,0.479,0.688l0.281,0.575L137.102,44.53L137.102,44.53z M135.373,40.033
		c1.51,0.001,2.738,1.217,2.734,2.727c0.004,1.51-1.228,2.73-2.734,2.73s-2.719-1.224-2.719-2.73
		C132.654,41.25,133.863,40.033,135.373,40.033z M135.373,39.361c-1.877,0-3.393,1.516-3.393,3.396c0,1.881,1.514,3.394,3.393,3.395
		c1.881,0,3.398-1.513,3.398-3.395C138.771,40.878,137.254,39.361,135.373,39.361z"/>
	<path d="M116.891,43.001c-7.326,0-12.392,2.905-15.816,6.96c-0.578-1.212-1.018-1.745-1.637-2.442
		c-2.806-3.175-7.314-4.651-13.365-4.652c-5.912,0-10.84,1.846-14.262,4.754c-1.778-2.889-6.016-4.8-11.121-4.8
		c-6.673-0.001-13.945,0.944-18.26,7.896c-0.104-2.504-0.33-3.826-1.737-5.315c-1.711-1.812-4.479-2.281-7.174-2.283
		c-4.91,0.002-8.606,2.146-11.268,6.514C18.395,55.79,9.041,76.067,9.25,85.889c0.14,6.345,4.396,10.916,12.014,11.098
		c5.948,0.14,10.617-1.451,13.589-4.448c2.666,2.896,6.729,4.592,11.595,4.595c5.417-0.002,10.867-1.629,14.087-5.184
		c2.713,3.332,6.981,5.271,12.468,5.244c7.181-0.035,13.479-3.438,17.599-8.652c2.256,6.149,7.981,8.59,14.237,8.589
		c13.709,0.001,19.732-9.425,24.748-24.331c1.129-3.355,2.64-8.965,2.887-13.674C132.889,51.292,129.572,43.001,116.891,43.001z
		 M25.672,80.476c7.097-1.231,8.876,1.333,8.651,3.708c-0.669,7.104-7.19,8.694-12.852,8.562c-4.107-0.096-7.804-1.978-7.905-6.746
		c-0.179-8.342,8.329-27.641,12.335-34.039c1.848-3.034,4.103-4.538,7.698-4.537c3.403-0.001,4.249,1.748,4.195,3.847
		C37.665,56.855,28.635,73.84,25.672,80.476z M48.771,73.924c-0.472,1.271-1.36,3.933-2.077,6.749
		c2.329-0.581,4.073-0.983,7.062-0.914c3.409,0.084,5.59,1.495,5.589,4.315c0,6.83-7.554,8.836-12.788,8.838
		c-5.752,0-10.806-3.272-10.806-9.562c0-7.375,3.997-18.558,7.748-26.003c4.605-9.146,9.313-10.361,17.418-10.361
		c3.563,0,7.666,1.521,7.666,4.885c0,4.663-3.944,6.441-7.861,6.666c-1.675,0.096-4.247,0.188-5.786,0.078
		c0,0-1.308,1.988-2.69,5.524c7.251-1.021,10.328,0.626,9.104,4.818C59.694,74.626,54.782,75,48.771,73.924z M84.438,56.292
		c-1.963-0.001-3.242,1.241-4.199,2.582c-2.1,2.952-6.654,14.78-7.365,19.644c-0.479,3.325,0.951,4.007,2.523,4.007
		c2.518-0.002,5.344-2.668,6.309-7.066c0,0-4.797-0.116-3.475-4.369c1.285-4.129,3.723-5.021,7.764-5.188
		c7.961-0.327,7.176,5.554,6.539,8.688c-2.07,10.183-9.312,18.356-19.562,18.356c-7.019,0-11.374-3.881-11.373-11.038
		c-0.001-5.096,2.525-13.099,4.531-17.781c4.269-9.969,8.744-16.942,20.146-16.942c6.84,0,12.236,2.459,11.443,8.864
		c-0.58,4.703-2.935,7.465-7.209,7.798c-1.195,0.095-6.091-0.027-4.47-4.657C86.611,57.564,86.844,56.292,84.438,56.292z
		 M127.496,64.706c-1.209,6.001-3.918,13.103-6.861,18.395c-4.803,8.633-10.629,9.842-15.723,9.778
		c-5.09-0.061-10.83-1.938-10.873-9.795c-0.031-5.637,2.4-13.6,4.465-18.813c3.603-9.457,7.277-17.169,18.906-17.031
		C130.967,47.398,128.549,59.457,127.496,64.706z M117.826,58.793c-0.145,3.621-5.451,18.104-7.336,21.297
		c-0.816,1.388-1.736,2.531-3.398,2.53c-1.442,0-2.098-1.026-2.135-2.201c-0.102-3.268,5.896-19.648,7.945-22.311
		c0.912-1.409,1.926-1.635,3.092-1.618C117.695,56.51,117.869,57.738,117.826,58.793z"/>
</g>
</svg>
